<svg aria-hidden="true" style="position:absolute;width:0;height:0;overflow:hidden" xmlns="http://www.w3.org/2000/svg"><defs>
   <symbol id="film" viewBox="0 0 32 32">
<path d="M1.231 0v32h29.538v-32h-29.538zM6.154 29.538h-2.462v-2.462h2.462v2.462zM6.154 24.615h-2.462v-2.462h2.462v2.462zM6.154 19.692h-2.462v-2.462h2.462v2.462zM6.154 14.769h-2.462v-2.462h2.462v2.462zM6.154 9.846h-2.462v-2.462h2.462v2.462zM6.154 4.923h-2.462v-2.462h2.462v2.462zM23.385 29.538h-14.769v-12.308h14.769v12.308zM23.385 14.769h-14.769v-12.308h14.769v12.308zM28.308 29.538h-2.462v-2.462h2.462v2.462zM28.308 24.615h-2.462v-2.462h2.462v2.462zM28.308 19.692h-2.462v-2.462h2.462v2.462zM28.308 14.769h-2.462v-2.462h2.462v2.462zM28.308 9.846h-2.462v-2.462h2.462v2.462zM28.308 4.923h-2.462v-2.462h2.462v2.462z"></path>
</symbol>
    <symbol id="search" viewBox="0 0 32 32"><path d="M31.121 26.879l-7.341-7.342c-1.094 1.701-2.541 3.148-4.243 4.242l7.342 7.342c1.172 1.172 3.072 1.172 4.242 0 1.172-1.17 1.172-3.070 0-4.242z"></path><path d="M24 12c0-6.627-5.373-12-12-12s-12 5.373-12 12 5.373 12 12 12c6.627 0 12-5.373 12-12zM12 21c-4.963 0-9-4.037-9-9s4.037-9 9-9c4.963 0 9 4.037 9 9s-4.037 9-9 9z"></path><path d="M5 12h2c0-2.757 2.243-5 5-5v-2c-3.859 0-7 3.141-7 7z"></path></symbol>
    <symbol id="arrow-left" viewBox="0 0 32 32"><path stroke-linejoin="round" stroke-linecap="round" stroke-width="2.666" d="M25.334 16H6.666M16 25.334 6.666 16 16 6.666"/></symbol>
    <symbol id="arrow-right" viewBox="0 0 32 32"><path stroke-linejoin="round" stroke-linecap="round" stroke-width="2.666" d="M6.666 16h18.668M16 25.334 25.334 16 16 6.666"/></symbol>
    <symbol id="close" viewBox="0 0 18 18"><path d="M15 4.108L13.892 3 9.5 7.392 5.108 3 4 4.108 8.392 8.5 4 12.892 5.108 14 9.5 9.608 13.892 14 15 12.892 10.608 8.5 15 4.108z" /></symbol>
    <symbol id="heart" viewBox="0 0 32 32"><path fill="#ff6b08" style="fill:var(--color2, #ff6b08)" d="m16 30.144-2.24-2.217C5.44 20.64 0 15.726 0 9.71 0 4.793 3.84.995 8.8.995c2.72.002 5.44 1.269 7.2 3.326A9.64 9.64 0 0 1 23.195.998h.005c4.96 0 8.8 3.801 8.8 8.711 0 6.021-5.44 10.933-13.76 18.217L16 30.145z"/></symbol></defs></svg>